HIERARCHY
ROOT pelvis
{
	OFFSET 0.003123 -0.351407 0.012037
	CHANNELS 6 Xposition Yposition Zposition Zrotation Yrotation Xrotation 
	JOINT left_hip
	{
		OFFSET 0.058189 -0.092763 -0.026001
		CHANNELS 3 Zrotation Yrotation Xrotation
		JOINT left_knee
		{
			OFFSET 0.054695 -0.378753 -0.009396
			CHANNELS 3 Zrotation Yrotation Xrotation
			JOINT left_ankle
			{
				OFFSET -0.043453 -0.403059 -0.031876
				CHANNELS 3 Zrotation Yrotation Xrotation
				JOINT left_foot
				{
					OFFSET 0.047257 -0.057997 0.118216
					CHANNELS 3 Zrotation Yrotation Xrotation
					End Site
					{
						OFFSET 0.000000 0.000000 0.000000
					}
				}
			}
		}
	}
	JOINT right_hip
	{
		OFFSET -0.063267 -0.103908 -0.021250
		CHANNELS 3 Zrotation Yrotation Xrotation
		JOINT right_knee
		{
			OFFSET -0.044210 -0.362380 -0.016824
			CHANNELS 3 Zrotation Yrotation Xrotation
			JOINT right_ankle
			{
				OFFSET 0.015417 -0.410728 -0.020192
				CHANNELS 3 Zrotation Yrotation Xrotation
				JOINT right_foot
				{
					OFFSET -0.038812 -0.058328 0.119049
					CHANNELS 3 Zrotation Yrotation Xrotation
					End Site
					{
						OFFSET 0.000000 0.000000 0.000000
					}
				}
			}
		}
	}
	JOINT spine_1
	{
		OFFSET -0.002763 0.109891 -0.027618
		CHANNELS 3 Zrotation Yrotation Xrotation
		JOINT spine_2
		{
			OFFSET 0.009448 0.131853 -0.005940
			CHANNELS 3 Zrotation Yrotation Xrotation
			JOINT spine_3
			{
				OFFSET -0.011330 0.052235 0.028447
				CHANNELS 3 Zrotation Yrotation Xrotation
				JOINT neck
				{
					OFFSET -0.012164 0.165167 -0.031615
					CHANNELS 3 Zrotation Yrotation Xrotation
					JOINT head
					{
						OFFSET 0.024783 0.160452 0.020737
						CHANNELS 3 Zrotation Yrotation Xrotation
						End Site
						{
							OFFSET 0.000000 0.000000 0.000000
						}
					}
				}
				JOINT left_collar
				{
					OFFSET 0.046364 0.084944 -0.007220
					CHANNELS 3 Zrotation Yrotation Xrotation
					JOINT left_shoulder
					{
						OFFSET 0.119239 0.057728 -0.015461
						CHANNELS 3 Zrotation Yrotation Xrotation
						JOINT left_elbow
						{
							OFFSET 0.254123 -0.072151 -0.042459
							CHANNELS 3 Zrotation Yrotation Xrotation
							JOINT left_wrist
							{
								OFFSET 0.251987 0.023221 -0.002472
								CHANNELS 3 Zrotation Yrotation Xrotation
								JOINT left_index_1
								{
									OFFSET 0.101902 -0.008688 0.019351
									CHANNELS 3 Zrotation Yrotation Xrotation
									JOINT left_index_2
									{
										OFFSET 0.030149 -0.011154 0.001151
										CHANNELS 3 Zrotation Yrotation Xrotation
										JOINT left_index_3
										{
											OFFSET 0.006504 -0.021577 -0.002433
											CHANNELS 3 Zrotation Yrotation Xrotation
											End Site
											{
												OFFSET 0.000000 0.000000 0.000000
											}
										}
									}
								}
								JOINT left_middle_1
								{
									OFFSET 0.109398 -0.006328 -0.003981
									CHANNELS 3 Zrotation Yrotation Xrotation
									JOINT left_middle_2
									{
										OFFSET 0.026472 -0.015218 -0.004641
										CHANNELS 3 Zrotation Yrotation Xrotation
										JOINT left_middle_3
										{
											OFFSET 0.005022 -0.023347 -0.001911
											CHANNELS 3 Zrotation Yrotation Xrotation
											End Site
											{
												OFFSET 0.000000 0.000000 0.000000
											}
										}
									}
								}
								JOINT left_pinky_1
								{
									OFFSET 0.084047 -0.014539 -0.043750
									CHANNELS 3 Zrotation Yrotation Xrotation
									JOINT left_pinky_2
									{
										OFFSET 0.012124 -0.014448 -0.005375
										CHANNELS 3 Zrotation Yrotation Xrotation
										JOINT left_pinky_3
										{
											OFFSET 0.003798 -0.018853 0.000167
											CHANNELS 3 Zrotation Yrotation Xrotation
											End Site
											{
												OFFSET 0.000000 0.000000 0.000000
											}
										}
									}
								}
								JOINT left_ring_1
								{
									OFFSET 0.097444 -0.009268 -0.027345
									CHANNELS 3 Zrotation Yrotation Xrotation
									JOINT left_ring_2
									{
										OFFSET 0.023561 -0.016057 -0.001895
										CHANNELS 3 Zrotation Yrotation Xrotation
										JOINT left_ring_3
										{
											OFFSET 0.004257 -0.023548 0.000814
											CHANNELS 3 Zrotation Yrotation Xrotation
											End Site
											{
												OFFSET 0.000000 0.000000 0.000000
											}
										}
									}
								}
								JOINT left_thumb_1
								{
									OFFSET 0.040636 -0.017977 0.025611
									CHANNELS 3 Zrotation Yrotation Xrotation
									JOINT left_thumb_2
									{
										OFFSET 0.021637 -0.017639 0.011623
										CHANNELS 3 Zrotation Yrotation Xrotation
										JOINT left_thumb_3
										{
											OFFSET 0.024002 -0.008356 0.006548
											CHANNELS 3 Zrotation Yrotation Xrotation
											End Site
											{
												OFFSET 0.000000 0.000000 0.000000
											}
										}
									}
								}
							}
						}
					}
				}
				JOINT right_collar
				{
					OFFSET -0.047695 0.084339 -0.013400
					CHANNELS 3 Zrotation Yrotation Xrotation
					JOINT right_shoulder
					{
						OFFSET -0.102578 0.053524 -0.012669
						CHANNELS 3 Zrotation Yrotation Xrotation
						JOINT right_elbow
						{
							OFFSET -0.271150 -0.036492 -0.026467
							CHANNELS 3 Zrotation Yrotation Xrotation
							JOINT right_wrist
							{
								OFFSET -0.249267 -0.004533 -0.015325
								CHANNELS 3 Zrotation Yrotation Xrotation
								JOINT right_index_1
								{
									OFFSET -0.099881 -0.011783 0.019600
									CHANNELS 3 Zrotation Yrotation Xrotation
									JOINT right_index_2
									{
										OFFSET -0.030148 -0.011154 0.001151
										CHANNELS 3 Zrotation Yrotation Xrotation
										JOINT right_index_3
										{
											OFFSET -0.006505 -0.021577 -0.002432
											CHANNELS 3 Zrotation Yrotation Xrotation
											End Site
											{
												OFFSET 0.000000 0.000000 0.000000
											}
										}
									}
								}
								JOINT right_middle_1
								{
									OFFSET -0.107376 -0.009422 -0.003734
									CHANNELS 3 Zrotation Yrotation Xrotation
									JOINT right_middle_2
									{
										OFFSET -0.026472 -0.015218 -0.004641
										CHANNELS 3 Zrotation Yrotation Xrotation
										JOINT right_middle_3
										{
											OFFSET -0.005022 -0.023347 -0.001911
											CHANNELS 3 Zrotation Yrotation Xrotation
											End Site
											{
												OFFSET 0.000000 0.000000 0.000000
											}
										}
									}
								}
								JOINT right_pinky_1
								{
									OFFSET -0.082027 -0.017634 -0.043503
									CHANNELS 3 Zrotation Yrotation Xrotation
									JOINT right_pinky_2
									{
										OFFSET -0.012123 -0.014448 -0.005374
										CHANNELS 3 Zrotation Yrotation Xrotation
										JOINT right_pinky_3
										{
											OFFSET -0.003798 -0.018852 0.000167
											CHANNELS 3 Zrotation Yrotation Xrotation
											End Site
											{
												OFFSET 0.000000 0.000000 0.000000
											}
										}
									}
								}
								JOINT right_ring_1
								{
									OFFSET -0.095423 -0.012362 -0.027099
									CHANNELS 3 Zrotation Yrotation Xrotation
									JOINT right_ring_2
									{
										OFFSET -0.023561 -0.016057 -0.001895
										CHANNELS 3 Zrotation Yrotation Xrotation
										JOINT right_ring_3
										{
											OFFSET -0.004257 -0.023548 0.000816
											CHANNELS 3 Zrotation Yrotation Xrotation
											End Site
											{
												OFFSET 0.000000 0.000000 0.000000
											}
										}
									}
								}
								JOINT right_thumb_1
								{
									OFFSET -0.038613 -0.021074 0.025861
									CHANNELS 3 Zrotation Yrotation Xrotation
									JOINT right_thumb_2
									{
										OFFSET -0.021636 -0.017639 0.011623
										CHANNELS 3 Zrotation Yrotation Xrotation
										JOINT right_thumb_3
										{
											OFFSET -0.024004 -0.008353 0.006547
											CHANNELS 3 Zrotation Yrotation Xrotation
											End Site
											{
												OFFSET 0.000000 0.000000 0.000000
											}
										}
									}
								}
							}
						}
					}
				}
			}
		}
	}
}
MOTION
Frames: 4
Frame Time: 0.050000
0.129583 0.956573 1.604248 -28.000795 -79.055902 28.083949 -10.515908 0.459521 -16.380574 21.655563 -1.806610 13.976647 -91.705141 26.697627 44.365571 0.000000 0.000000 0.000000 12.998180 1.923946 22.459532 0.358953 7.536444 -22.373881 -31.009495 -2.545183 85.037666 0.000000 0.000000 0.000000 -10.967063 4.196719 17.272403 5.642318 -0.135196 -42.420676 -11.013190 -39.964431 44.352273 20.163410 5.278570 1.912663 0.000000 0.000000 0.000000 45.008047 -22.168498 77.382965 118.997589 -60.832968 -25.548921 75.098221 31.200258 27.891165 43.149195 0.490369 -59.263903 26.940692 11.125185 12.390622 117.456645 -12.997972 -89.244906 0.000000 0.000000 0.000000 -4.172448 -39.948113 -8.406896 60.817956 -5.865946 -55.052019 0.000000 0.000000 0.000000 22.705745 -49.648516 -59.556090 25.543109 -0.016686 0.729365 0.000000 0.000000 0.000000 -0.036336 -51.573479 -19.603273 43.143894 3.822720 -23.340515 0.000000 0.000000 0.000000 88.059519 10.073499 26.043283 -35.746345 -25.941393 9.487368 0.000000 0.000000 0.000000 -25.810347 -20.169650 -47.885351 54.404971 -57.345669 -69.783027 58.689831 -40.464261 -35.407574 -18.964029 -4.968111 49.052054 5.008322 -48.479170 9.116908 -65.578137 5.586034 20.123193 0.000000 0.000000 0.000000 -21.368132 2.387997 -1.007286 -85.580152 4.908439 79.113025 0.000000 0.000000 0.000000 -83.341121 2.963947 -73.922660 -52.908304 2.926154 17.684455 0.000000 0.000000 0.000000 -58.358801 13.460847 -38.834030 -138.705344 2.933026 29.362502 0.000000 0.000000 0.000000 -62.287607 -57.957598 73.329226 7.234989 27.050660 -6.878897 0.000000 0.000000 0.000000 
0.130054 0.956896 1.609528 -33.903783 -79.386670 34.456095 -10.206662 0.660834 -16.902600 22.048736 -1.785918 13.847510 -91.756221 26.653477 43.920585 0.000000 0.000000 0.000000 13.397598 1.733517 21.801421 0.100393 7.345939 -21.833038 -31.023827 -3.006421 83.114653 0.000000 0.000000 0.000000 -8.484647 2.820204 16.850500 5.227879 -0.139085 -41.904938 -12.720426 -40.428185 45.127258 20.623485 5.843544 3.000463 0.000000 0.000000 0.000000 45.011901 -20.516639 80.411405 119.508061 -60.775994 -23.856477 76.599384 34.716243 31.571473 43.193552 0.773344 -47.732073 29.614138 12.464488 13.249390 114.559629 -9.032553 -72.934911 0.000000 0.000000 0.000000 4.917949 -34.989707 -12.818938 65.671854 -3.798877 -61.289716 0.000000 0.000000 0.000000 32.864415 -48.208493 -68.775023 28.149289 -0.086999 3.875837 0.000000 0.000000 0.000000 9.261146 -48.836103 -26.767327 44.191575 4.607941 -27.639930 0.000000 0.000000 0.000000 90.974803 13.852794 31.920733 -32.489395 -26.453771 7.487488 0.000000 0.000000 0.000000 -24.926296 -17.393107 -49.022792 53.556090 -57.218065 -69.320026 58.550115 -40.962686 -36.211600 -20.177750 -4.962252 44.892760 4.826903 -46.488091 9.624951 -67.201928 6.644199 26.353672 0.000000 0.000000 0.000000 -21.679960 1.883874 -0.341488 -87.606442 8.308059 74.623430 0.000000 0.000000 0.000000 -83.502408 4.317868 -74.499921 -52.740342 2.870259 16.890834 0.000000 0.000000 0.000000 -56.497987 15.859418 -37.997528 -131.105370 -7.799788 14.692841 0.000000 0.000000 0.000000 -71.795077 -56.804692 80.051265 9.238234 28.839062 -6.382139 0.000000 0.000000 0.000000 
0.130526 0.956573 1.609528 -33.763973 -79.482313 34.511905 -10.303930 0.695832 -17.104454 22.041222 -1.799551 13.762059 -91.778746 26.611661 43.917215 0.000000 0.000000 0.000000 13.925077 1.504525 21.342848 -0.966431 6.795964 -21.414886 -30.860104 -2.543631 82.961370 0.000000 0.000000 0.000000 -8.420019 2.840762 17.059410 4.997433 -0.139476 -42.014476 -13.305543 -42.068756 46.116258 20.602133 6.038138 3.267860 0.000000 0.000000 0.000000 45.200407 -19.556674 81.375320 119.381753 -60.624042 -21.164704 77.179278 37.959073 34.459071 43.317471 1.001599 -48.904720 29.714344 12.333190 13.438211 101.064609 -11.870168 -64.691452 0.000000 0.000000 0.000000 5.984561 -35.548972 -12.898596 72.248374 -5.609216 -52.385073 0.000000 0.000000 0.000000 31.717871 -46.743574 -65.998590 27.960914 -0.015209 0.920939 0.000000 0.000000 0.000000 10.858624 -49.275836 -27.435023 45.999989 4.514589 -25.119827 0.000000 0.000000 0.000000 92.162801 12.624902 31.904382 -35.582607 -21.835354 9.307790 0.000000 0.000000 0.000000 -25.129165 -16.502835 -49.342412 54.679112 -58.987309 -72.579163 58.527532 -42.489734 -37.178892 -22.044256 -4.062945 40.594590 -1.633690 -49.296806 13.025940 -70.018636 7.770846 22.492779 0.000000 0.000000 0.000000 -23.003647 -0.269971 1.455323 -90.036198 11.675499 65.911551 0.000000 0.000000 0.000000 -83.487407 6.141192 -73.490034 -46.422359 2.094555 14.320906 0.000000 0.000000 0.000000 -56.603445 15.929215 -36.275587 -123.431001 -10.149035 9.962256 0.000000 0.000000 0.000000 -74.729042 -54.440504 80.535540 11.336349 28.914519 -5.219572 0.000000 0.000000 0.000000 
0.131468 0.956251 1.614807 -27.234608 -79.134564 28.114050 -12.202640 0.446130 -17.028226 23.000978 -1.883799 13.426301 -91.082652 26.881994 44.721221 0.000000 0.000000 0.000000 13.248377 1.495757 21.218800 -1.602003 6.339865 -21.164392 -30.883102 -2.894159 82.693588 0.000000 0.000000 0.000000 -8.099139 2.632979 17.163224 7.099241 0.764997 -42.621683 -15.660834 -40.166868 46.033675 22.797277 6.814823 4.039958 0.000000 0.000000 0.000000 44.200782 -20.735071 79.654301 117.955708 -60.042469 -22.163597 74.803449 33.651631 29.953655 42.237887 0.249802 -49.457295 28.703045 14.044843 13.795038 106.801759 -10.731444 -76.924659 0.000000 0.000000 0.000000 2.296486 -38.666908 -12.180306 67.159581 -4.823879 -47.151201 0.000000 0.000000 0.000000 28.972908 -47.900220 -65.178872 27.549471 0.011220 1.404663 0.000000 0.000000 0.000000 8.065160 -50.988136 -26.325189 46.123478 4.302503 -22.629134 0.000000 0.000000 0.000000 91.894077 12.781286 31.771421 -33.719142 -26.704341 8.185080 0.000000 0.000000 0.000000 -26.224521 -18.935432 -49.839510 55.632853 -62.089090 -74.724128 55.782452 -44.986028 -35.926516 -23.541868 -5.243980 37.138048 -4.967712 -48.574439 14.904323 -74.455148 6.997036 16.330146 0.000000 0.000000 0.000000 -20.790717 9.471375 -5.237639 -104.608975 19.766096 63.249974 0.000000 0.000000 0.000000 -79.503476 9.781998 -78.912851 -49.651539 2.037103 13.454203 0.000000 0.000000 0.000000 -56.586464 18.824946 -39.256825 -115.616720 -11.366815 5.153936 0.000000 0.000000 0.000000 -80.210210 -51.871974 82.201849 14.025324 29.394897 -3.905988 0.000000 0.000000 0.000000 
